<?xml version="1.0"?>
<svg width="400" height="394" xmlns="http://www.w3.org/2000/svg" xmlns:svg="http://www.w3.org/2000/svg" preserveAspectRatio="xMidYMid meet">
 <metadata>Created by potrace 1.11, written by Peter Selinger 2001-2013</metadata>
 <g>
  <title>Layer 1</title>
  <g id="svg_1" fill="#000000" transform="translate(0,394) scale(0.10000000149011612,-0.10000000149011612) ">
   <path fill="#aaaaff" id="svg_2" d="m2520,3755l-185,-185l486,-2l487,-3l-420,-405c-230,-223 -443,-427 -473,-453l-55,-49l-39,34c-257,219 -834,318 -1245,214c-253,-65 -478,-202 -673,-410c-196,-210 -316,-437 -375,-709c-18,-85 -21,-131 -20,-282c2,-281 40,-460 142,-670c70,-144 141,-245 255,-364c236,-245 464,-374 785,-442c154,-33 447,-33 608,-1c287,58 537,191 747,397c308,302 440,651 414,1098c-18,321 -95,576 -226,749l-51,66l472,458l471,457l3,-484l2,-484l185,185l185,185l0,642l0,643l-648,0l-647,0l-185,-185zm-805,-1295c175,-48 340,-145 476,-280c105,-105 166,-190 224,-312c71,-150 89,-242 89,-438c0,-138 -4,-178 -22,-245c-70,-255 -258,-485 -503,-619c-244,-133 -580,-154 -850,-52c-142,53 -240,118 -359,236c-214,212 -305,429 -305,730c0,280 85,500 266,694c150,161 318,258 519,301c101,22 362,14 465,-15z"/>
  </g>
 </g>
</svg>