<?xml version="1.0"?>
<svg width="170" height="300" xmlns="http://www.w3.org/2000/svg" xmlns:svg="http://www.w3.org/2000/svg" stroke="null" style="vector-effect: non-scaling-stroke;" preserveAspectRatio="xMidYMid meet">
 <metadata stroke="null" style="vector-effect: non-scaling-stroke;">Created by potrace 1.11, written by Peter Selinger 2001-2013</metadata>
 <g stroke="null">
  <title stroke="null">Layer 1</title>
  <g stroke="null" transform="translate(0,402) scale(0.10000000149011612,-0.10000000149011612) " fill="#000000" id="svg_1">
   <path stroke="null" d="m693.754333,3990.742432c-8.03656,-1.168213 -33.868286,-5.256592 -57.403809,-8.760986c-96.438354,-14.601807 -229.615204,-71.8396 -312.850739,-134.918457c-90.697998,-68.919189 -166.471039,-159.44873 -217.56041,-261.659668c-57.977852,-115.060303 -80.939377,-212.014404 -80.939377,-344.59668c0,-95.201904 7.462494,-146.599365 32.720165,-227.78418c58.551884,-189.23584 191.154697,-348.10083 366.236286,-440.382568c63.718262,-33.291504 150.971954,-64.246826 199.765228,-71.255859l29.849976,-4.088135l0,-144.847412l0,-145.431396l-169.341217,0l-169.341217,0l0,-108.051514l0,-108.051636l169.341217,0l169.341217,0l0,-166.45752l0,-166.457764l109.067261,0l109.0672,0l0,166.457764l0,166.45752l169.341248,0l169.341187,0l0,108.051636l0,108.051514l-169.341187,0l-169.341248,0l0,145.431396l0,144.847412l29.849976,4.088135c80.939392,11.097412 220.430603,73.007813 300.221985,133.750244c51.089478,38.548096 118.251709,106.883545 156.138306,158.86499c61.996094,84.688965 115.955688,212.014404 134.324829,318.313721c9.758789,56.654053 9.758789,200.333252 0,256.987549c-40.182617,230.704346 -187.710327,433.957764 -390.9198,539.673096c-66.588379,34.459717 -129.732727,57.238037 -195.172974,70.671387c-42.478943,8.760986 -184.840271,16.35376 -212.394104,11.097412zm188.284546,-253.48291c179.673889,-43.220459 324.905457,-190.988525 369.680481,-377.888428c32.720093,-137.838379 2.870117,-297.871582 -78.069336,-412.347656c-29.275757,-42.05249 -91.271973,-104.546875 -131.454712,-131.997803c-161.878601,-112.139893 -397.234192,-112.139893 -559.112976,0c-40.182678,27.450928 -102.178772,89.945313 -131.454681,131.997803c-120.547989,171.130371 -120.547989,416.436279 0,587.566406c29.275909,42.05249 91.272003,104.547119 131.454681,131.997803c112.511475,77.68042 258.891113,103.963379 398.956543,70.671875z" id="svg_2" fill="#ffaaaa"/>
  </g>
 </g>
</svg>